<svg width="13" height="14" viewBox="0 0 13 14" fill="none" xmlns="http://www.w3.org/2000/svg">
<g clip-path="url(#clip0)">
<path d="M6.5 13.2064C2.91586 13.2064 0 10.2796 0 6.68198C0 3.08439 2.91586 0.157593 6.5 0.157593C10.0841 0.157593 13 3.08439 13 6.68198C13 10.2796 10.0841 13.2064 6.5 13.2064ZM6.5 1.08962C3.42793 1.08962 0.928543 3.59839 0.928543 6.68198C0.928543 9.76558 3.42793 12.2743 6.5 12.2743C9.57207 12.2743 12.0715 9.76558 12.0715 6.68198C12.0715 3.59839 9.57207 1.08962 6.5 1.08962Z" fill="#23C967"/>
<path d="M8.82153 9.47817C8.70271 9.47817 8.58389 9.43267 8.49324 9.34158L3.85042 4.68134C3.66902 4.49926 3.66902 4.20438 3.85042 4.02239C4.03173 3.84041 4.32561 3.84031 4.50691 4.02239L9.14973 8.68263C9.33113 8.86471 9.33113 9.15959 9.14973 9.34158C9.05907 9.43267 8.94035 9.47817 8.82153 9.47817Z" fill="#23C967"/>
<path d="M4.17862 9.4782C4.0598 9.4782 3.94108 9.43271 3.85042 9.34162C3.66902 9.15963 3.66902 8.86465 3.85042 8.68267L8.49324 4.02243C8.67464 3.84034 8.96842 3.84034 9.14973 4.02243C9.33103 4.20441 9.33113 4.49939 9.14973 4.68138L4.50691 9.34162C4.41626 9.43271 4.29744 9.4782 4.17862 9.4782Z" fill="#23C967"/>
</g>
<defs>
<clipPath id="clip0">
<rect width="13" height="13.0488" fill="white" transform="translate(0 0.157593)"/>
</clipPath>
</defs>
</svg>
