<svg width="13" height="13" viewBox="0 0 13 13" fill="none" xmlns="http://www.w3.org/2000/svg">
<path d="M6.49994 3.40454C6.24349 3.40454 6.03564 3.61239 6.03564 3.86883V9.13074C6.03564 9.38718 6.24349 9.59503 6.49994 9.59503C6.75638 9.59503 6.96423 9.38718 6.96423 9.13074V3.86883C6.96423 3.61239 6.75638 3.40454 6.49994 3.40454Z" fill="#23C967"/>
<path d="M9.13147 6.03564H3.86957C3.61312 6.03564 3.40527 6.24349 3.40527 6.49994C3.40527 6.75638 3.61312 6.96423 3.86957 6.96423H9.13147C9.38791 6.96423 9.59576 6.75638 9.59576 6.49994C9.59576 6.24349 9.38791 6.03564 9.13147 6.03564Z" fill="#23C967"/>
<path d="M6.5 0C2.91586 0 0 2.91586 0 6.5C0 10.0841 2.91586 13 6.5 13C10.0841 13 13 10.0841 13 6.5C13 2.91586 10.0841 0 6.5 0ZM6.5 12.0714C3.42781 12.0714 0.92856 9.57219 0.92856 6.5C0.92856 3.42781 3.42781 0.92856 6.5 0.92856C9.57219 0.92856 12.0714 3.42781 12.0714 6.5C12.0714 9.57219 9.57219 12.0714 6.5 12.0714Z" fill="#23C967"/>
</svg>
