<svg width="103" height="118" viewBox="0 0 103 118" fill="none" xmlns="http://www.w3.org/2000/svg">
<g opacity="0.2">
<circle cx="3.66256" cy="3.66231" r="3.66207" fill="#A6ACCC"/>
<circle cx="19.1239" cy="3.66207" r="3.66207" fill="#A6ACCC"/>
<circle cx="35.4001" cy="3.66219" r="3.66207" fill="#A6ACCC"/>
<circle cx="50.862" cy="3.66207" r="3.66207" fill="#A6ACCC"/>
<circle cx="67.1382" cy="3.66219" r="3.66207" fill="#A6ACCC"/>
<circle cx="82.6001" cy="3.66219" r="3.66207" fill="#A6ACCC"/>
<circle cx="98.8757" cy="3.66207" r="3.66207" fill="#A6ACCC"/>
<circle cx="3.66207" cy="19.1242" r="3.66207" fill="#A6ACCC"/>
<circle cx="19.1239" cy="19.1242" r="3.66207" fill="#A6ACCC"/>
<circle cx="35.4001" cy="19.1242" r="3.66207" fill="#A6ACCC"/>
<circle cx="50.862" cy="19.1241" r="3.66207" fill="#A6ACCC"/>
<circle cx="82.6001" cy="19.1241" r="3.66207" fill="#A6ACCC"/>
<circle cx="66.9074" cy="19.196" r="3.66207" fill="#A6ACCC"/>
<circle cx="98.8757" cy="19.1241" r="3.66207" fill="#A6ACCC"/>
<circle cx="3.66207" cy="35.4" r="3.66207" fill="#A6ACCC"/>
<circle cx="35.4001" cy="35.4" r="3.66207" fill="#A6ACCC"/>
<circle cx="19.8662" cy="35.4" r="3.66207" fill="#A6ACCC"/>
<circle cx="50.862" cy="35.4" r="3.66207" fill="#A6ACCC"/>
<circle cx="67.1382" cy="35.4" r="3.66207" fill="#A6ACCC"/>
<circle cx="82.6001" cy="35.4" r="3.66207" fill="#A6ACCC"/>
<circle cx="98.8757" cy="35.4001" r="3.66207" fill="#A6ACCC"/>
<circle cx="3.66207" cy="50.862" r="3.66207" fill="#A6ACCC"/>
<circle cx="19.1239" cy="50.862" r="3.66207" fill="#A6ACCC"/>
<circle cx="35.4001" cy="50.862" r="3.66207" fill="#A6ACCC"/>
<circle cx="50.862" cy="50.862" r="3.66207" fill="#A6ACCC"/>
<circle cx="67.1376" cy="50.862" r="3.66207" fill="#A6ACCC"/>
<circle cx="82.6001" cy="50.8621" r="3.66207" fill="#A6ACCC"/>
<circle cx="98.8757" cy="50.862" r="3.66207" fill="#A6ACCC"/>
<circle cx="3.66207" cy="67.1379" r="3.66207" fill="#A6ACCC"/>
<circle cx="19.1239" cy="67.1379" r="3.66207" fill="#A6ACCC"/>
<circle cx="35.4001" cy="67.1379" r="3.66207" fill="#A6ACCC"/>
<circle cx="50.862" cy="67.1379" r="3.66207" fill="#A6ACCC"/>
<circle cx="67.1376" cy="67.1379" r="3.66207" fill="#A6ACCC"/>
<circle cx="82.6001" cy="67.1379" r="3.66207" fill="#A6ACCC"/>
<circle cx="98.8757" cy="67.1379" r="3.66207" fill="#A6ACCC"/>
<circle cx="3.66207" cy="82.5999" r="3.66207" fill="#A6ACCC"/>
<circle cx="19.1239" cy="82.6001" r="3.66207" fill="#A6ACCC"/>
<circle cx="35.4001" cy="82.6001" r="3.66207" fill="#A6ACCC"/>
<circle cx="50.862" cy="82.6001" r="3.66207" fill="#A6ACCC"/>
<circle cx="67.1382" cy="82.6001" r="3.66207" fill="#A6ACCC"/>
<circle cx="82.6001" cy="82.6001" r="3.66207" fill="#A6ACCC"/>
<circle cx="98.8757" cy="82.5999" r="3.66207" fill="#A6ACCC"/>
<circle cx="3.66207" cy="98.8758" r="3.66207" fill="#A6ACCC"/>
<circle cx="19.1239" cy="98.8758" r="3.66207" fill="#A6ACCC"/>
<circle cx="35.4001" cy="98.8758" r="3.66207" fill="#A6ACCC"/>
<circle cx="50.862" cy="98.8758" r="3.66207" fill="#A6ACCC"/>
<circle cx="67.1376" cy="98.8758" r="3.66207" fill="#A6ACCC"/>
<circle cx="82.6001" cy="98.8758" r="3.66207" fill="#A6ACCC"/>
<circle cx="98.8757" cy="98.8759" r="3.66207" fill="#A6ACCC"/>
<circle cx="3.66207" cy="114.338" r="3.66207" fill="#A6ACCC"/>
<circle cx="19.1245" cy="114.338" r="3.66207" fill="#A6ACCC"/>
<circle cx="35.4001" cy="114.338" r="3.66207" fill="#A6ACCC"/>
<circle cx="50.862" cy="114.338" r="3.66207" fill="#A6ACCC"/>
<circle cx="67.1382" cy="114.338" r="3.66207" fill="#A6ACCC"/>
<circle cx="82.6001" cy="114.338" r="3.66207" fill="#A6ACCC"/>
<circle cx="98.8757" cy="114.338" r="3.66207" fill="#A6ACCC"/>
</g>
</svg>
