<svg width="32" height="32" viewBox="0 0 32 32" fill="none" xmlns="http://www.w3.org/2000/svg">
<path d="M30.0675 16C31.1348 16 32.012 16.8683 31.8835 17.9279C31.534 20.8067 30.4067 23.5496 28.6059 25.8535C26.4066 28.6672 23.3291 30.6642 19.8636 31.5265C16.398 32.3889 12.7436 32.067 9.48209 30.6122C6.2206 29.1574 3.53959 26.6533 1.8659 23.4985C0.192222 20.3437 -0.377906 16.7197 0.246295 13.2034C0.870496 9.68717 2.65314 6.4808 5.3104 4.09486C7.96766 1.70891 11.3468 0.280549 14.9097 0.0371916C17.8271 -0.162071 20.7303 0.442527 23.31 1.76746C24.2593 2.25507 24.4864 3.46834 23.888 4.35206C23.2895 5.23577 22.0923 5.45098 21.1249 5.00024C19.2758 4.13872 17.229 3.75276 15.1731 3.89318C12.4708 4.07775 9.90796 5.16108 7.89259 6.97067C5.87722 8.78027 4.52519 11.2121 4.05177 13.879C3.57836 16.5459 4.01076 19.2944 5.28015 21.6871C6.54954 24.0798 8.58292 25.9791 11.0566 27.0825C13.5302 28.1859 16.3019 28.43 18.9303 27.7759C21.5587 27.1219 23.8927 25.6073 25.5608 23.4733C26.8299 21.8497 27.658 19.9386 27.9815 17.9244C28.1507 16.8706 29.0002 16 30.0675 16Z" fill="#F4F5FA"/>
</svg>
