<svg width="9" height="13" viewBox="0 0 9 13" fill="none" xmlns="http://www.w3.org/2000/svg">
<path d="M8.78094 7.22247C8.63507 7.04746 8.45806 6.96001 8.24963 6.96001H7.99978V5.15991C7.99978 4.00993 7.65612 3.02252 6.96859 2.19752C6.28111 1.37248 5.45835 0.959961 4.4999 0.959961C3.54147 0.959961 2.71855 1.37248 2.03112 2.19748C1.34359 3.02252 0.999938 4.0099 0.999938 5.15991V6.96001H0.749974C0.541712 6.96001 0.364589 7.04746 0.218742 7.22247C0.0728959 7.39736 0 7.6099 0 7.86005V13.26C0 13.5099 0.0729232 13.7225 0.218742 13.8976C0.364589 14.0724 0.541712 14.16 0.749974 14.16H8.24982C8.45825 14.16 8.63523 14.0725 8.78114 13.8976C8.92685 13.7225 8.99988 13.5099 8.99988 13.26V7.85995C8.99999 7.61 8.92685 7.39749 8.78094 7.22247ZM6.49986 6.96001H2.49994V5.15991C2.49994 4.49745 2.69529 3.93178 3.0859 3.46311C3.47656 2.99438 3.94787 2.76006 4.49998 2.76006C5.05214 2.76006 5.52334 2.99435 5.91403 3.46311C6.30454 3.93175 6.49986 4.49745 6.49986 5.15991V6.96001Z" fill="#AFB4CC"/>
</svg>
